<svg width="24" height="24" viewBox="0 0 24 24" fill="none" xmlns="http://www.w3.org/2000/svg">
<rect width="24" height="24" rx="6" fill="#6B7280"/>
<path d="M8.73295 17V6.81818H12.1733C12.9721 6.81818 13.625 6.96236 14.1321 7.25071C14.6425 7.53575 15.0204 7.92188 15.2656 8.40909C15.5109 8.89631 15.6335 9.43987 15.6335 10.0398C15.6335 10.6397 15.5109 11.1849 15.2656 11.6754C15.0237 12.166 14.6491 12.5571 14.142 12.8487C13.6349 13.1371 12.9853 13.2812 12.1932 13.2812H9.72727V12.1875H12.1534C12.7003 12.1875 13.1394 12.093 13.4709 11.9041C13.8023 11.7152 14.0426 11.46 14.1918 11.1385C14.3442 10.8137 14.4205 10.4474 14.4205 10.0398C14.4205 9.6321 14.3442 9.26752 14.1918 8.94602C14.0426 8.62453 13.8007 8.37263 13.4659 8.19034C13.1312 8.00473 12.687 7.91193 12.1335 7.91193H9.96591V17H8.73295Z" fill="white"/>
</svg>
